<svg width="274" height="17" viewBox="0 0 274 17" fill="none" xmlns="http://www.w3.org/2000/svg">
<path d="M21 3.19157L21 0.49157L0.419998 7.06157L0.419998 9.73157L21 16.3016L21 13.6016L15.12 11.7416L15.12 5.02157L21 3.19157ZM12.72 10.9916L4.38 8.38157L12.72 5.77157L12.72 10.9916ZM57 14.9516L57 7.21157C57 3.40157 54.9 0.851569 51.15 0.851569C48.66 0.851569 46.5 2.23157 45.63 4.69157C44.7 3.37157 43.17 2.47157 41.55 2.47157C38.46 2.47157 36.42 4.66157 36.42 8.56157L36.42 14.9516L57 14.9516ZM44.76 12.2516L38.82 12.2516L38.82 8.56157C38.82 6.52157 39.9 5.17157 41.79 5.17157C43.56 5.17157 44.76 6.40157 44.76 8.56157L44.76 12.2516ZM54.6 12.2516L47.16 12.2516L47.16 7.18157C47.16 4.99157 48.51 3.55157 50.91 3.55157C53.13 3.55157 54.6 4.87157 54.6 7.21157L54.6 12.2516ZM93.3 8.38157C93.3 3.37157 89.49 0.551568 82.71 0.551568C75.93 0.551568 72.12 3.37157 72.12 8.38157C72.12 13.3916 75.93 16.2116 82.71 16.2116C89.49 16.2116 93.3 13.3916 93.3 8.38157ZM90.9 8.38157C90.9 11.6516 87.96 13.5116 82.71 13.5116C77.46 13.5116 74.52 11.6516 74.52 8.38157C74.52 5.11157 77.46 3.25157 82.71 3.25157C87.96 3.25157 90.9 5.11157 90.9 8.38157ZM129.3 8.38157C129.3 3.94157 126.63 1.45157 121.92 1.45157L108.42 1.45157L108.42 4.15157L121.92 4.15157C125.1 4.15157 126.9 5.68157 126.9 8.38157C126.9 11.0816 125.1 12.6116 121.92 12.6116L108.42 12.6116L108.42 15.3116L121.92 15.3116C126.63 15.3116 129.3 12.8216 129.3 8.38157ZM165 9.73156L165 7.03156L146.82 7.03156L146.82 1.15156L144.42 1.15156L144.42 15.6116L146.82 15.6116L146.82 9.73157L165 9.73156ZM237.3 8.38156C237.3 3.94156 234.63 1.45156 229.92 1.45156L216.42 1.45156L216.42 4.15156L229.92 4.15156C233.1 4.15156 234.9 5.68156 234.9 8.38156C234.9 11.0816 233.1 12.6116 229.92 12.6116L216.42 12.6116L216.42 15.3116L229.92 15.3116C234.63 15.3116 237.3 12.8216 237.3 8.38156ZM273.3 8.38156C273.3 3.85156 270.84 0.85156 267.15 0.85156C264.3 0.85156 262.56 2.86156 260.97 8.08156C260.1 11.1116 259.26 12.2816 257.88 12.2816C255.87 12.2816 254.52 10.7216 254.52 8.38156C254.52 5.86156 256.23 3.88156 258.81 3.43156L258.24 1.06156C254.58 1.57156 252.12 4.48156 252.12 8.38156C252.12 12.3416 254.43 14.9816 257.88 14.9816C260.55 14.9816 262.14 13.2116 263.46 8.71156C264.54 4.99156 265.56 3.55156 267.15 3.55156C269.4 3.55156 270.9 5.47156 270.9 8.38156C270.9 11.5616 268.92 13.6616 265.92 13.6616L265.92 16.2116C270.36 16.2116 273.3 13.0916 273.3 8.38156Z" fill="white"/>
</svg>
