<svg width="238" height="17" viewBox="0 0 238 17" fill="none" xmlns="http://www.w3.org/2000/svg">
<path d="M21.7727 8.38548C21.7727 3.94548 18.7727 1.09548 13.4027 0.495476L13.4027 3.07548C17.2127 3.49548 19.3727 5.41548 19.3727 8.38548C19.3727 11.6555 16.4327 13.5155 11.1827 13.5155C5.93266 13.5155 2.99265 11.6555 2.99265 8.38548C2.99265 5.44548 4.97265 3.52548 8.48265 3.07548L8.48265 0.525476C3.44265 1.09548 0.592654 3.91548 0.592654 8.38548C0.592654 13.3955 4.40266 16.2155 11.1827 16.2155C17.9627 16.2155 21.7727 13.3955 21.7727 8.38548ZM57.7727 8.38547C57.7727 3.37547 53.9627 0.555476 47.1827 0.555476C40.4027 0.555476 36.5927 3.37548 36.5927 8.38548C36.5927 13.3955 40.4027 16.2155 47.1827 16.2155C53.9627 16.2155 57.7727 13.3955 57.7727 8.38547ZM55.3727 8.38547C55.3727 11.6555 52.4327 13.5155 47.1827 13.5155C41.9327 13.5155 38.9927 11.6555 38.9927 8.38548C38.9927 5.11548 41.9327 3.25548 47.1827 3.25548C52.4327 3.25547 55.3727 5.11547 55.3727 8.38547ZM93.4727 15.2855L93.4727 12.5855L77.6027 12.5855L93.4727 4.33547L93.4727 1.48547L72.8927 1.48547L72.8927 4.18547L88.7927 4.18547L72.8927 12.4355L72.8927 15.2855L93.4727 15.2855ZM129.473 9.73547L129.473 7.03547L111.293 7.03547L111.293 1.15547L108.893 1.15547L108.893 15.6155L111.293 15.6155L111.293 9.73547L129.473 9.73547ZM165.473 3.19547L165.473 0.49547L144.893 7.06547L144.893 9.73547L165.473 16.3055L165.473 13.6055L159.593 11.7455L159.593 5.02547L165.473 3.19547ZM157.193 10.9955L148.853 8.38547L157.193 5.77547L157.193 10.9955ZM201.773 8.38547C201.773 3.94547 198.773 1.09547 193.403 0.495468L193.403 3.07547C197.213 3.49547 199.373 5.41547 199.373 8.38547C199.373 11.6555 196.433 13.5155 191.183 13.5155C185.933 13.5155 182.993 11.6555 182.993 8.38547C182.993 5.44547 184.973 3.52547 188.483 3.07547L188.483 0.525468C183.443 1.09547 180.593 3.91547 180.593 8.38547C180.593 13.3955 184.403 16.2155 191.183 16.2155C197.963 16.2155 201.773 13.3955 201.773 8.38547ZM237.473 9.73547L237.473 7.03547L219.293 7.03547L219.293 1.15547L216.893 1.15547L216.893 15.6155L219.293 15.6155L219.293 9.73547L237.473 9.73547Z" fill="white"/>
</svg>
