<svg width="309" height="17" viewBox="0 0 309 17" fill="none" xmlns="http://www.w3.org/2000/svg">
<path d="M21.3 8.38743C21.3 3.94743 18.3 1.09743 12.93 0.497429L12.93 3.07743C16.74 3.49743 18.9 5.41743 18.9 8.38743C18.9 11.6574 15.96 13.5174 10.71 13.5174C5.46 13.5174 2.52 11.6574 2.52 8.38743C2.52 5.44743 4.5 3.52743 8.01 3.07743L8.01 0.527429C2.97 1.09743 0.119998 3.91743 0.119998 8.38743C0.119998 13.3974 3.93 16.2174 10.71 16.2174C17.49 16.2174 21.3 13.3974 21.3 8.38743ZM57.3 8.38743C57.3 3.37743 53.49 0.557429 46.71 0.557429C39.93 0.557429 36.12 3.37743 36.12 8.38743C36.12 13.3974 39.93 16.2174 46.71 16.2174C53.49 16.2174 57.3 13.3974 57.3 8.38743ZM54.9 8.38743C54.9 11.6574 51.96 13.5174 46.71 13.5174C41.46 13.5174 38.52 11.6574 38.52 8.38743C38.52 5.11743 41.46 3.25743 46.71 3.25743C51.96 3.25743 54.9 5.11743 54.9 8.38743ZM93 14.7174L93 12.0174L84.15 12.0174L84.15 7.00743C84.15 3.13743 81.78 0.557427 78.24 0.557428C74.76 0.557428 72.42 3.13743 72.42 7.00743L72.42 14.7174L93 14.7174ZM81.75 12.0174L74.82 12.0174L74.82 7.00743C74.82 4.75743 76.2 3.25743 78.24 3.25743C80.34 3.25743 81.75 4.75743 81.75 7.00743L81.75 12.0174ZM129 9.73743L129 7.03743L121.95 7.03743L108.42 0.557426L108.42 3.52743L118.89 8.38743L108.42 13.2474L108.42 16.2174L121.95 9.73743L129 9.73743ZM165 14.7174L165 12.0174L155.16 12.0174L155.16 9.16742L165 3.04742L165 0.0474233L155.1 6.19742C154.68 2.95742 152.64 1.36742 149.79 1.36742C146.61 1.36742 144.42 3.34742 144.42 7.39742L144.42 14.7174L165 14.7174ZM152.76 12.0174L146.82 12.0174L146.82 7.39742C146.82 4.96742 147.87 4.06742 149.79 4.06742C151.71 4.06742 152.76 4.96742 152.76 7.39742L152.76 12.0174ZM201 15.6174L201 1.15742L198.6 1.15742L198.6 7.03742L182.82 7.03742L182.82 1.15742L180.42 1.15742L180.42 15.6174L182.82 15.6174L182.82 9.73742L198.6 9.73742L198.6 15.6174L201 15.6174ZM227.79 8.35742L227.79 3.16742C232.62 3.16742 234.9 4.81742 234.9 8.35742C234.9 11.6274 231.96 13.4874 226.71 13.4874C221.46 13.4874 218.52 11.6274 218.52 8.35742C218.52 5.56742 219.78 3.82742 222 3.49742L222 0.887421C218.25 1.57742 216.12 4.27742 216.12 8.35742C216.12 13.3674 219.93 16.1874 226.71 16.1874C233.49 16.1874 237.3 13.3674 237.3 8.35742C237.3 3.04742 233.82 0.527419 226.41 0.52742L225.39 0.52742L225.39 8.35742L227.79 8.35742ZM273 15.2874L273 12.5874L263.16 12.5874L263.16 4.18742L273 4.18742L273 1.48742L252.42 1.48742L252.42 4.18742L260.76 4.18742L260.76 12.5874L252.42 12.5874L252.42 15.2874L273 15.2874ZM309 9.73742L309 7.03742L290.82 7.03742L290.82 1.15742L288.42 1.15742L288.42 15.6174L290.82 15.6174L290.82 9.73742L309 9.73742Z" fill="white"/>
</svg>
