<svg width="58" height="56" viewBox="0 0 58 56" fill="none" xmlns="http://www.w3.org/2000/svg">
<path d="M41.0167 4.66699H16.8897C10.2272 4.66699 4.82617 9.89023 4.82617 16.3334V39.6663C4.82617 46.1095 10.2272 51.3327 16.8897 51.3327H41.0167C47.6792 51.3327 53.0802 46.1095 53.0802 39.6663V16.3334C53.0802 9.89023 47.6792 4.66699 41.0167 4.66699Z" stroke="white" stroke-width="3.5" stroke-linecap="round" stroke-linejoin="round"/>
<path d="M38.6035 26.5305C38.9012 28.4724 38.5583 30.4556 37.6233 32.1981C36.6884 33.9406 35.2092 35.3537 33.396 36.2363C31.5828 37.1188 29.528 37.4261 27.5238 37.1142C25.5197 36.8023 23.6683 35.8872 22.2329 34.4991C20.7975 33.111 19.8513 31.3205 19.5288 29.3823C19.2063 27.4441 19.524 25.457 20.4366 23.7035C21.3493 21.95 22.8104 20.5194 24.6122 19.6152C26.414 18.7111 28.4647 18.3794 30.4727 18.6674C32.5209 18.9611 34.4171 19.8841 35.8812 21.3C37.3453 22.716 38.2997 24.5498 38.6035 26.5305Z" stroke="white" stroke-width="3.5" stroke-linecap="round" stroke-linejoin="round"/>
<path d="M42.2227 15.1677H42.2462" stroke="white" stroke-width="3.5" stroke-linecap="round" stroke-linejoin="round"/>
</svg>
