<svg width="273" height="17" viewBox="0 0 273 17" fill="none" xmlns="http://www.w3.org/2000/svg">
<path d="M21.03 14.7096L21.03 1.74962L18.63 1.74962L18.63 12.0096L0.449997 12.0096L0.449998 14.7096L21.03 14.7096ZM57.3 8.37962C57.3 3.36962 53.49 0.549616 46.71 0.549617C39.93 0.549617 36.12 3.36962 36.12 8.37962C36.12 13.3896 39.93 16.2096 46.71 16.2096C53.49 16.2096 57.3 13.3896 57.3 8.37962ZM54.9 8.37962C54.9 11.6496 51.96 13.5096 46.71 13.5096C41.46 13.5096 38.52 11.6496 38.52 8.37962C38.52 5.10962 41.46 3.24962 46.71 3.24962C51.96 3.24962 54.9 5.10962 54.9 8.37962ZM93.3 8.37961C93.3 3.93961 90.3 1.08961 84.93 0.489614L84.93 3.06961C88.74 3.48961 90.9 5.40961 90.9 8.37961C90.9 11.6496 87.96 13.5096 82.71 13.5096C77.46 13.5096 74.52 11.6496 74.52 8.37961C74.52 5.43961 76.5 3.51961 80.01 3.06961L80.01 0.519614C74.97 1.08961 72.12 3.90962 72.12 8.37961C72.12 13.3896 75.93 16.2096 82.71 16.2096C89.49 16.2096 93.3 13.3896 93.3 8.37961ZM129 3.18961L129 0.489612L108.42 7.05961L108.42 9.72961L129 16.2996L129 13.5996L123.12 11.7396L123.12 5.01961L129 3.18961ZM120.72 10.9896L112.38 8.37961L120.72 5.76961L120.72 10.9896ZM165 9.72961L165 7.02961L146.82 7.02961L146.82 1.14961L144.42 1.14961L144.42 15.6096L146.82 15.6096L146.82 9.72961L165 9.72961ZM201 15.6096L201 1.14961L198.6 1.14961L198.6 7.02961L182.82 7.02961L182.82 1.14961L180.42 1.14961L180.42 15.6096L182.82 15.6096L182.82 9.72961L198.6 9.72961L198.6 15.6096L201 15.6096ZM237.3 8.37961C237.3 3.36961 233.49 0.549608 226.71 0.549609C219.93 0.549609 216.12 3.36961 216.12 8.37961C216.12 13.3896 219.93 16.2096 226.71 16.2096C233.49 16.2096 237.3 13.3896 237.3 8.37961ZM234.9 8.37961C234.9 11.6496 231.96 13.5096 226.71 13.5096C221.46 13.5096 218.52 11.6496 218.52 8.37961C218.52 5.10961 221.46 3.24961 226.71 3.24961C231.96 3.24961 234.9 5.10961 234.9 8.37961ZM273 15.2796L273 12.5796L257.13 12.5796L273 4.32961L273 1.47961L252.42 1.47961L252.42 4.17961L268.32 4.17961L252.42 12.4296L252.42 15.2796L273 15.2796Z" fill="white"/>
</svg>
