<svg width="345" height="17" viewBox="0 0 345 17" fill="none" xmlns="http://www.w3.org/2000/svg">
<path d="M21.3 8.38548C21.3 3.37548 17.49 0.555477 10.71 0.555477C3.93 0.555478 0.119998 3.37548 0.119998 8.38548C0.119998 13.3955 3.93 16.2155 10.71 16.2155C17.49 16.2155 21.3 13.3955 21.3 8.38548ZM18.9 8.38548C18.9 11.6555 15.96 13.5155 10.71 13.5155C5.46 13.5155 2.52 11.6555 2.52 8.38548C2.52 5.11548 5.46 3.25548 10.71 3.25548C15.96 3.25548 18.9 5.11548 18.9 8.38548ZM57 15.2855L57 12.5855L41.13 12.5855L57 4.33548L57 1.48547L36.42 1.48548L36.42 4.18548L52.32 4.18548L36.42 12.4355L36.42 15.2855L57 15.2855ZM93.03 14.7155L93.03 1.75547L90.63 1.75547L90.63 12.0155L72.45 12.0155L72.45 14.7155L93.03 14.7155ZM129 15.6155L129 1.15547L126.6 1.15547L126.6 7.03547L110.82 7.03547L110.82 1.15547L108.42 1.15547L108.42 15.6155L110.82 15.6155L110.82 9.73547L126.6 9.73547L126.6 15.6155L129 15.6155ZM165 15.2855L165 12.5855L149.13 12.5855L165 4.33547L165 1.48547L144.42 1.48547L144.42 4.18547L160.32 4.18547L144.42 12.4355L144.42 15.2855L165 15.2855ZM201 14.7155L201 1.15547L198.6 1.15547L198.6 12.0155L191.16 12.0155L191.16 2.23547L188.76 2.23547L188.76 12.0155L182.82 12.0155L182.82 1.15547L180.42 1.15547L180.42 14.7155L201 14.7155ZM237.3 8.38547C237.3 3.85547 234.84 0.855467 231.15 0.855468C228.3 0.855468 226.56 2.86547 224.97 8.08547C224.1 11.1155 223.26 12.2855 221.88 12.2855C219.87 12.2855 218.52 10.7255 218.52 8.38547C218.52 5.86547 220.23 3.88547 222.81 3.43547L222.24 1.06547C218.58 1.57547 216.12 4.48547 216.12 8.38547C216.12 12.3455 218.43 14.9855 221.88 14.9855C224.55 14.9855 226.14 13.2155 227.46 8.71547C228.54 4.99547 229.56 3.55547 231.15 3.55547C233.4 3.55547 234.9 5.47547 234.9 8.38547C234.9 11.5655 232.92 13.6655 229.92 13.6655L229.92 16.2155C234.36 16.2155 237.3 13.0955 237.3 8.38547ZM273 15.2855L273 12.5855L263.16 12.5855L263.16 4.18547L273 4.18547L273 1.48546L252.42 1.48547L252.42 4.18547L260.76 4.18547L260.76 12.5855L252.42 12.5855L252.42 15.2855L273 15.2855ZM309.3 8.38546C309.3 3.37546 305.49 0.555465 298.71 0.555465C291.93 0.555465 288.12 3.37546 288.12 8.38546C288.12 13.3955 291.93 16.2155 298.71 16.2155C305.49 16.2155 309.3 13.3955 309.3 8.38546ZM306.9 8.38546C306.9 11.6555 303.96 13.5155 298.71 13.5155C293.46 13.5155 290.52 11.6555 290.52 8.38546C290.52 5.11546 293.46 3.25546 298.71 3.25546C303.96 3.25546 306.9 5.11546 306.9 8.38546ZM345 14.7155L345 12.0155L336.15 12.0155L336.15 7.00546C336.15 3.13546 333.78 0.555463 330.24 0.555464C326.76 0.555464 324.42 3.13546 324.42 7.00546L324.42 14.7155L345 14.7155ZM333.75 12.0155L326.82 12.0155L326.82 7.00546C326.82 4.75546 328.2 3.25546 330.24 3.25546C332.34 3.25546 333.75 4.75546 333.75 7.00546L333.75 12.0155Z" fill="white"/>
</svg>
