<svg width="381" height="17" viewBox="0 0 381 17" fill="none" xmlns="http://www.w3.org/2000/svg">
<path d="M21.3 8.38548C21.3 3.85548 18.84 0.855477 15.15 0.855477C12.3 0.855477 10.56 2.86548 8.97 8.08548C8.1 11.1155 7.26 12.2855 5.88 12.2855C3.87 12.2855 2.52 10.7255 2.52 8.38548C2.52 5.86548 4.23 3.88548 6.81 3.43548L6.24 1.06548C2.58 1.57548 0.119998 4.48548 0.119998 8.38548C0.119998 12.3455 2.43 14.9855 5.88 14.9855C8.55 14.9855 10.14 13.2155 11.46 8.71548C12.54 4.99548 13.56 3.55548 15.15 3.55548C17.4 3.55548 18.9 5.47548 18.9 8.38548C18.9 11.5655 16.92 13.6655 13.92 13.6655L13.92 16.2155C18.36 16.2155 21.3 13.0955 21.3 8.38548ZM57.3 8.38547C57.3 3.37547 53.49 0.555476 46.71 0.555476C39.93 0.555476 36.12 3.37548 36.12 8.38548C36.12 13.3955 39.93 16.2155 46.71 16.2155C53.49 16.2155 57.3 13.3955 57.3 8.38547ZM54.9 8.38547C54.9 11.6555 51.96 13.5155 46.71 13.5155C41.46 13.5155 38.52 11.6555 38.52 8.38548C38.52 5.11548 41.46 3.25548 46.71 3.25548C51.96 3.25547 54.9 5.11547 54.9 8.38547ZM93.3 8.38547C93.3 3.94547 90.3 1.09547 84.93 0.495473L84.93 3.07547C88.74 3.49547 90.9 5.41547 90.9 8.38547C90.9 11.6555 87.96 13.5155 82.71 13.5155C77.46 13.5155 74.52 11.6555 74.52 8.38547C74.52 5.44547 76.5 3.52547 80.01 3.07547L80.01 0.525473C74.97 1.09547 72.12 3.91547 72.12 8.38547C72.12 13.3955 75.93 16.2155 82.71 16.2155C89.49 16.2155 93.3 13.3955 93.3 8.38547ZM129 15.6155L129 1.15547L126.6 1.15547L126.6 7.03547L110.82 7.03547L110.82 1.15547L108.42 1.15547L108.42 15.6155L110.82 15.6155L110.82 9.73547L126.6 9.73547L126.6 15.6155L129 15.6155ZM165 3.19547L165 0.49547L144.42 7.06547L144.42 9.73547L165 16.3055L165 13.6055L159.12 11.7455L159.12 5.02547L165 3.19547ZM156.72 10.9955L148.38 8.38547L156.72 5.77547L156.72 10.9955ZM201.03 14.7155L201.03 1.75547L198.63 1.75547L198.63 12.0155L180.45 12.0155L180.45 14.7155L201.03 14.7155ZM237 15.6155L237 12.9155L221.37 12.9155L231.09 9.70547L231.09 7.06547L221.37 3.85547L237 3.85547L237 1.15547L216.42 1.15547L216.42 4.30547L228.33 8.38547L216.42 12.4655L216.42 15.6155L237 15.6155ZM273 14.7155L273 1.15547L270.6 1.15547L270.6 12.0155L263.16 12.0155L263.16 2.23547L260.76 2.23547L260.76 12.0155L254.82 12.0155L254.82 1.15547L252.42 1.15547L252.42 14.7155L273 14.7155ZM309 14.7155L309 8.77546C309 3.52546 305.28 0.555465 298.68 0.555465C292.11 0.555465 288.42 3.52546 288.42 8.77547L288.42 14.7155L309 14.7155ZM306.6 12.0155L290.82 12.0155L290.82 8.77546C290.82 5.23546 293.64 3.25546 298.68 3.25546C303.75 3.25546 306.6 5.23546 306.6 8.77546L306.6 12.0155ZM345 15.6155L345 1.15546L342.6 1.15546L342.6 7.03546L326.82 7.03546L326.82 1.15546L324.42 1.15546L324.42 15.6155L326.82 15.6155L326.82 9.73546L342.6 9.73546L342.6 15.6155L345 15.6155ZM381 3.19546L381 0.49546L360.42 7.06546L360.42 9.73546L381 16.3055L381 13.6055L375.12 11.7455L375.12 5.02546L381 3.19546ZM372.72 10.9955L364.38 8.38546L372.72 5.77546L372.72 10.9955Z" fill="white"/>
</svg>
