<svg width="50" height="55" viewBox="0 0 50 55" fill="none" xmlns="http://www.w3.org/2000/svg">
<path d="M48.1755 12.0812C42.1925 12.0812 37.3249 7.38441 37.3249 1.61133C37.3249 0.721321 36.5769 0 35.655 0H26.7114C25.789 0 25.0414 0.721321 25.0414 1.61133V36.9926C25.0414 40.3864 22.18 43.1475 18.6622 43.1475C15.145 43.1475 12.2835 40.3864 12.2835 36.9926C12.2835 33.5983 15.145 30.8372 18.6622 30.8372C19.5846 30.8372 20.3322 30.1159 20.3322 29.2259V20.596C20.3322 19.7065 19.5846 18.9847 18.6622 18.9847C8.37179 18.9847 0 27.0632 0 36.9926C0 46.922 8.37179 55 18.6622 55C28.9527 55 37.3249 46.922 37.3249 36.9926V21.3312C40.6487 23.0412 44.3469 23.9337 48.1755 23.9337C49.0979 23.9337 49.8454 23.2124 49.8454 22.3223V13.6925C49.8454 12.8029 49.0979 12.0812 48.1755 12.0812ZM46.5056 20.6443C42.9405 20.3581 39.555 19.1563 36.63 17.1262C36.1216 16.7729 35.451 16.7242 34.8931 17.0004C34.3356 17.2756 33.9851 17.8295 33.9851 18.4342V36.9926C33.9851 45.1449 27.111 51.7773 18.6622 51.7773C10.2135 51.7773 3.33984 45.1449 3.33984 36.9926C3.33984 29.3845 9.32634 23.0999 16.9923 22.2947V27.753C12.4261 28.5192 8.94365 32.3705 8.94365 36.9926C8.94365 42.1635 13.3033 46.3706 18.6622 46.3706C24.0217 46.3706 28.3813 42.1635 28.3813 36.9926V3.22266H34.0825C34.8474 9.48753 40.0129 14.4717 46.5056 15.2098V20.6443Z" fill="white"/>
</svg>
